<svg width="16" height="16" viewBox="0 0 16 16" fill="none" xmlns="http://www.w3.org/2000/svg">
<path d="M11.3335 4.66668H4.66683C4.49002 4.66668 4.32045 4.73691 4.19543 4.86194C4.0704 4.98696 4.00016 5.15653 4.00016 5.33334C4.00016 5.51015 4.0704 5.67972 4.19543 5.80475C4.32045 5.92977 4.49002 6.00001 4.66683 6.00001H11.3335C11.5103 6.00001 11.6799 5.92977 11.8049 5.80475C11.9299 5.67972 12.0002 5.51015 12.0002 5.33334C12.0002 5.15653 11.9299 4.98696 11.8049 4.86194C11.6799 4.73691 11.5103 4.66668 11.3335 4.66668ZM11.3335 7.33334H4.66683C4.49002 7.33334 4.32045 7.40358 4.19543 7.52861C4.0704 7.65363 4.00016 7.8232 4.00016 8.00001C4.00016 8.17682 4.0704 8.34639 4.19543 8.47141C4.32045 8.59644 4.49002 8.66668 4.66683 8.66668H11.3335C11.5103 8.66668 11.6799 8.59644 11.8049 8.47141C11.9299 8.34639 12.0002 8.17682 12.0002 8.00001C12.0002 7.8232 11.9299 7.65363 11.8049 7.52861C11.6799 7.40358 11.5103 7.33334 11.3335 7.33334ZM12.6668 1.33334H3.3335C2.80306 1.33334 2.29436 1.54406 1.91928 1.91913C1.54421 2.2942 1.3335 2.80291 1.3335 3.33334V10C1.3335 10.5304 1.54421 11.0392 1.91928 11.4142C2.29436 11.7893 2.80306 12 3.3335 12H11.0602L13.5268 14.4733C13.5891 14.5351 13.663 14.584 13.7442 14.6172C13.8254 14.6504 13.9124 14.6672 14.0002 14.6667C14.0876 14.6689 14.1744 14.6507 14.2535 14.6133C14.3752 14.5633 14.4795 14.4784 14.553 14.3693C14.6266 14.2601 14.6662 14.1316 14.6668 14V3.33334C14.6668 2.80291 14.4561 2.2942 14.081 1.91913C13.706 1.54406 13.1973 1.33334 12.6668 1.33334ZM13.3335 12.3933L11.8068 10.86C11.7445 10.7982 11.6707 10.7493 11.5894 10.7162C11.5082 10.683 11.4212 10.6662 11.3335 10.6667H3.3335C3.15669 10.6667 2.98712 10.5964 2.86209 10.4714C2.73707 10.3464 2.66683 10.1768 2.66683 10V3.33334C2.66683 3.15653 2.73707 2.98696 2.86209 2.86194C2.98712 2.73691 3.15669 2.66668 3.3335 2.66668H12.6668C12.8436 2.66668 13.0132 2.73691 13.1382 2.86194C13.2633 2.98696 13.3335 3.15653 13.3335 3.33334V12.3933Z" fill="#75839D"/>
</svg>
